<svg id="Layer_1" data-name="Layer 1" xmlns="http://www.w3.org/2000/svg" xmlns:xlink="http://www.w3.org/1999/xlink" viewBox="0 0 692.05 179.5"><defs><clipPath id="clip-path" transform="translate(0 0)"><rect width="178.5" height="178.5" fill="none"/></clipPath></defs><title>logo</title><path d="M228.55,14.5q0-6.75,3.78-10.62T244.68,0a19.35,19.35,0,0,1,10.71,3q4.66,3,4.66,11.75V60.5q4.23-6.75,12.83-12.62T293.94,42q12,0,19.56,3.75a35,35,0,0,1,13.08,11.5,39.16,39.16,0,0,1,7,19.25q1,10.75,1,20v66.75q0,7.25-3.75,10.5T319.05,177a18.68,18.68,0,0,1-11.12-3.12q-4.38-3.12-4.37-10.62V96q0-10.75-2-16a12.42,12.42,0,0,0-6.21-7,23,23,0,0,0-9.94-2,23.67,23.67,0,0,0-10.19,2A25.34,25.34,0,0,0,268,78a22.77,22.77,0,0,0-4.6,6.5A25.55,25.55,0,0,0,261.3,91a52.61,52.61,0,0,0-1.12,10.25Q260,107,260.05,111v51.5q0,7.75-3.66,11.13T243.92,177q-7.05,0-11.21-3.25T228.55,163V14.5Z" transform="translate(0 0)" fill="#d4145a"/><path d="M389.8,119.5q1.25,32.75,28.5,32.75,8,0,12.63-1.87A63.84,63.84,0,0,0,441,145l6-4a12.33,12.33,0,0,1,7-2q4.75,0,8.75,4.25a14.76,14.76,0,0,1,4,10.5,15.41,15.41,0,0,1-5,11.38,41,41,0,0,1-12.5,8.13A71.13,71.13,0,0,1,433.17,178a93.18,93.18,0,0,1-15.87,1.5q-28.25,0-43.87-16.75T357.8,112.5a99.77,99.77,0,0,1,3.38-25.87A68.12,68.12,0,0,1,371.8,64,54.42,54.42,0,0,1,390,48q11-6,26.5-6,24.5,0,39.13,16.63t14.63,48.13q0,7.25-4,10T455,119.5H389.8Zm49.5-24.75a35.89,35.89,0,0,0-1.37-10,24.21,24.21,0,0,0-4.25-8.37,21.58,21.58,0,0,0-7.37-5.87,24,24,0,0,0-27.12,4.75q-7.12,7-8.37,19.5h48.5Z" transform="translate(0 0)" fill="#d4145a"/><path d="M561.3,160a60.18,60.18,0,0,1-5.62,6.75,34.86,34.86,0,0,1-7.62,5.88,44.15,44.15,0,0,1-10.25,4.25,50,50,0,0,1-13.5,1.63q-18,0-28.38-9t-10.37-26.75q0-10.75,3.38-18.37A35.46,35.46,0,0,1,498,111.75a46.57,46.57,0,0,1,13.13-8,79.54,79.54,0,0,1,15.38-4.5Q535.3,97.5,543,96.5t18-1.75v-6.5a36.31,36.31,0,0,0-.75-7.37,16.5,16.5,0,0,0-3-6.62A15.26,15.26,0,0,0,551,69.5a25.81,25.81,0,0,0-10.25-1.75,29.55,29.55,0,0,0-12.12,2.5,67.68,67.68,0,0,0-12.87,8q-2.75,2-5.38,3.75a12.18,12.18,0,0,1-6.87,1.75,11.26,11.26,0,0,1-4.87-1.12,15.09,15.09,0,0,1-4.25-3,16.63,16.63,0,0,1-3.12-4.37,11,11,0,0,1-1.25-5,13.7,13.7,0,0,1,2.13-7.87Q494.29,59.25,500,55a62.33,62.33,0,0,1,19.88-9.75A77,77,0,0,1,541.55,42q26.25,0,38,11.38T591.3,88.25v75q0,7.25-3.75,10.5T575.8,177q-6.75,0-10.62-3.12t-3.87-10.62V160ZM561,117q-8.75,1-16.5,2.25T533,121.5q-10,2.5-13.62,7A16.24,16.24,0,0,0,515.8,139a15.59,15.59,0,0,0,3.38,10q3.38,4.25,12.13,4.25A32.08,32.08,0,0,0,543.55,151a29.26,29.26,0,0,0,9.38-6,26.46,26.46,0,0,0,6-8.75A27.23,27.23,0,0,0,561,125.5V117Z" transform="translate(0 0)" fill="#d4145a"/><path d="M619.55,58.25a14.75,14.75,0,0,1,3.38-9.62q3.38-4.12,11.88-4.12,6.5,0,10.5,2.5t4,9v5.5a48.25,48.25,0,0,1,11.5-13.75A25.55,25.55,0,0,1,677.55,42q5.25,0,8.13,1.75A11.59,11.59,0,0,1,689.92,48a15.1,15.1,0,0,1,1.75,5.25,37.32,37.32,0,0,1,.38,5,32,32,0,0,1-.37,4.75,12,12,0,0,1-5.37,8.5,16.82,16.82,0,0,1-6.75,2.5q-4.75,1-9,2a41.36,41.36,0,0,0-9.5,3.75q-7.25,4-9,13a111,111,0,0,0-1.75,21v48.5q0,7.75-3.62,11.25T635,177q-15.5,0-15.5-14.75v-104Z" transform="translate(0 0)" fill="#d4145a"/><g id="Symbol_Transparent_" data-name="Symbol (Transparent)"><g clip-path="url(#clip-path)"><g clip-path="url(#clip-path)"><path d="M89.25,57.18a32.07,32.07,0,1,0,32.07,32.07A32.11,32.11,0,0,0,89.25,57.18m0,51.6a19.52,19.52,0,1,1,19.52-19.52,19.52,19.52,0,0,1-19.52,19.52" transform="translate(0 0)" fill="#d4145a"/><path d="M89.25,0A89.25,89.25,0,1,0,178.5,89.25,89.25,89.25,0,0,0,89.25,0m0,124.11a34.86,34.86,0,1,1,34.86-34.86,34.9,34.9,0,0,1-34.86,34.86" transform="translate(0 0)" fill="#d4145a"/></g></g></g></svg>
